<svg id="Layer_1" data-name="Layer 1" xmlns="http://www.w3.org/2000/svg" viewBox="0 0 400 300" width="406" height="306" class="illustration styles_illustrationTablet__1DWOa"><title>_</title><ellipse cx="200" cy="258.96" rx="100.58" ry="7.88" fill="#e6e6e6" opacity="0.45"></ellipse><path d="M193.82,105s23.92,9.56,34.55-1.35l8,9.09s-18.62,22.88-36.88,14.8S193.82,105,193.82,105Z" fill="#f4a28c"></path><path d="M193.82,105s23.92,9.56,34.55-1.35l8,9.09s-18.62,22.88-36.88,14.8S193.82,105,193.82,105Z" opacity="0.09"></path><circle cx="259.4" cy="82.02" r="22.97" fill="#68e1fd"></circle><circle cx="259.4" cy="82.02" r="22.97" opacity="0.09"></circle><circle cx="240.62" cy="56.14" r="22.97" fill="#ffd200"></circle><circle cx="232.57" cy="91.55" r="22.97" fill="#68e1fd"></circle><circle cx="232.57" cy="91.55" r="22.97" fill="#fff" opacity="0.44"></circle><polygon points="278.85 199.95 217.13 109.15 280.99 90.18 278.85 199.95" fill="#e6e6e6"></polygon><polygon points="168.93 180.26 191.01 251.08 196.15 251.08 191.36 178.09 168.93 180.26" fill="#f4a28c"></polygon><path d="M151.15,171.64l4.44,28.9-19.18-15.08-3.68,4.3s18.88,30.85,34.07,27.32,5.68-50.43,5.68-50.43Z" fill="#f4a28c"></path><polygon points="182.83 59.81 182.74 84.08 196.12 83.17 190.81 65.88 182.83 59.81" fill="#f4a28c"></polygon><path d="M192.14,69.61a8.79,8.79,0,0,1-4.68-1.89s.87,4.36,6.36,7.94Z" fill="#ce8172" opacity="0.31"></path><path d="M196.11,56.8s1.35,7.29.59,12.29a3.72,3.72,0,0,1-4.26,3.11c-2.52-.42-5.8-1.72-7-5.53l-2.83-6.23a6.63,6.63,0,0,1,2.23-7.35C188.71,49.69,195.51,52.33,196.11,56.8Z" fill="#f4a28c"></path><path d="M188.89,63.87s-.33-2.83-2.44-2.4-1.66,4.52,1.27,4.62Z" fill="#f4a28c"></path><path d="M196.72,61.44l2.33,2.64a1.18,1.18,0,0,1-.56,1.92l-2.76.8Z" fill="#f4a28c"></path><path d="M189.79,79.9s31.53,14,21.5,35.69c-7.26,15.72-15.55,12.28-18.41,25l-3,12.48-32.23-11.66s4.91-18.24,3.47-30.61S155,67.54,189.79,79.9Z" fill="#68e1fd"></path><path d="M174.38,88.43s17.88,16.35,5.83,33.62c-2.05,2.93-3.87,6-5.65,9.1l-7.75,13.53-9.13-3.3,1.72-7.68Z" opacity="0.09"></path><path d="M186.37,61.08s-.34,18.69-7.68,22.47-25.46,1.9-23.53-7.36c2.52-12.07,11.86-9.51,16.49-21.5,4.7-12.17,28.48-9.72,28.35-2.22S186.37,61.08,186.37,61.08Z" fill="#ffd200"></path><path d="M157.68,141.38,189.91,153l3.91,38.89-43.92-3.07S140.28,159.28,157.68,141.38Z" fill="#24285b"></path><path d="M195.78,251.08s2.84,3.59,6.47,3.42,4.16,4.95-1.68,4.42a32.26,32.26,0,0,1-5.38-.92,9.45,9.45,0,0,0-4.92.17,1.58,1.58,0,0,1-1.67-.67c-1.65-1.94,2.41-6.42,2.41-6.42Z" fill="#68e1fd"></path><path d="M133.19,189.88s-4.58-.1-6.76,2.81-6.47,0-2.34-4.12a32.18,32.18,0,0,1,4.14-3.55,9.53,9.53,0,0,0,3-3.91,1.56,1.56,0,0,1,1.57-.85c2.55,0,3.6,5.2,3.6,5.2Z" fill="#68e1fd"></path><path d="M163.62,86.52c-12.22,7.27-.92,46.74,38.14,50.35,22.78,2.1,48.62-29.1,48.62-29.1l-4.4-7.28s-25.84,22.59-40.18,19.15C190.91,116.06,177.89,78,163.62,86.52Z" fill="#f4a28c"></path><path d="M246,100.49s1.15-5.07,2.59-5.55,1.81,1.53,1.81,1.53,2.3-3.83,4.31-2.87,5.94,4.79-4.31,14.17Z" fill="#f4a28c"></path><path d="M194.8,45.13l-4.53-7.48-12.74,1.9L175.38,48c-6.79,1.5-11.34,3.16-11.18,4.27.24,1.57,10,1.43,21.7-.32s21.07-4.45,20.84-6C206.57,44.84,201.73,44.58,194.8,45.13Z" fill="#e6e6e6"></path><path d="M258.63,242.4s12.45-3.35,15.2-14.91c0,0-19.25-4-19.88,15.91Z" fill="#68e1fd" opacity="0.58"></path><path d="M257.11,241.16s8.74-13.7,1.15-26.58c0,0-14.69,9.25-8.25,26.58Z" fill="#68e1fd" opacity="0.73"></path><path d="M254.87,241.16s-4.53-14.53-18.4-17.33c0,0-2.64,9.4,8.92,17.33Z" fill="#68e1fd"></path><polygon points="263.89 240.87 261.3 258.1 245.42 258.1 243.15 240.87 263.89 240.87" fill="#24285b"></polygon></svg>